<svg width="800" height="600" xmlns="http://www.w3.org/2000/svg" version="1.1"><g transform="translate(50,0)"><text x="-50" y="23" style="font-size: 10px; font-family: Arial, Helvetica;">6</text><g class="y axis" transform="translate(0,30)" style="font-size: 10px; font-family: Arial, Helvetica;"><g class="tick" transform="translate(0,52.857142857142854)" style="opacity: 1;"><line x2="-6" y2="0" style="shape-rendering: crispEdges; fill: none; stroke: rgb(204, 204, 204);"></line><text dy=".32em" x="-9" y="0" style="text-anchor: end;">0</text></g><g class="tick" transform="translate(0,36.28750559785042)" style="opacity: 1;"><line x2="-6" y2="0" style="shape-rendering: crispEdges; fill: none; stroke: rgb(204, 204, 204);"></line><text dy=".32em" x="-9" y="0" style="text-anchor: end;">100</text></g><g class="tick" transform="translate(0,19.71786833855799)" style="opacity: 1;"><line x2="-6" y2="0" style="shape-rendering: crispEdges; fill: none; stroke: rgb(204, 204, 204);"></line><text dy=".32em" x="-9" y="0" style="text-anchor: end;">200</text></g><g class="tick" transform="translate(0,3.148231079265561)" style="opacity: 1;"><line x2="-6" y2="0" style="shape-rendering: crispEdges; fill: none; stroke: rgb(204, 204, 204);"></line><text dy=".32em" x="-9" y="0" style="text-anchor: end;">300</text></g><path class="domain" d="M-6,0H0V52.857142857142854H-6" style="shape-rendering: crispEdges; fill: none; stroke: rgb(204, 204, 204);"></path></g><rect transform="translate(0,30)" class="bar" x="51" width="23" y="51.200179131213616" height="1.6569637259292378" style="fill: rgb(191, 139, 105);"></rect><rect transform="translate(0,30)" class="bar" x="76" width="23" y="52.02866099417823" height="0.8284818629646225" style="fill: rgb(191, 156, 105);"></rect><rect transform="translate(0,30)" class="bar" x="101" width="23" y="46.063591580832956" height="6.793551276309898" style="fill: rgb(191, 174, 105);"></rect><rect transform="translate(0,30)" class="bar" x="126" width="23" y="41.258396775638154" height="11.5987460815047" style="fill: rgb(191, 191, 105);"></rect><rect transform="translate(0,30)" class="bar" x="151" width="23" y="47.22346618898343" height="5.633676668159424" style="fill: rgb(174, 191, 105);"></rect><rect transform="translate(0,30)" class="bar" x="176" width="23" y="39.10434393193014" height="13.752798925212716" style="fill: rgb(156, 191, 105);"></rect><rect transform="translate(0,30)" class="bar" x="201" width="23" y="11.764442454097628" height="41.09270040304523" style="fill: rgb(139, 191, 105);"></rect><rect transform="translate(0,30)" class="bar" x="226" width="23" y="39.10434393193014" height="13.752798925212716" style="fill: rgb(122, 191, 105);"></rect><rect transform="translate(0,30)" class="bar" x="251" width="23" y="15.741155396327809" height="37.11598746081505" style="fill: rgb(105, 191, 105);"></rect><rect transform="translate(0,30)" class="bar" x="276" width="23" y="5.467980295566502" height="47.389162561576356" style="fill: rgb(105, 191, 122);"></rect><rect transform="translate(0,30)" class="bar" x="301" width="23" y="31.97939991043439" height="20.877742946708466" style="fill: rgb(105, 191, 139);"></rect><rect transform="translate(0,30)" class="bar" x="326" width="23" y="45.40080609046126" height="7.456336766681595" style="fill: rgb(105, 191, 156);"></rect><rect transform="translate(0,30)" class="bar" x="351" width="23" y="35.956112852664575" height="16.90103000447828" style="fill: rgb(105, 191, 174);"></rect><rect transform="translate(0,30)" class="bar" x="376" width="23" y="25.351545006717416" height="27.50559785042544" style="fill: rgb(105, 191, 191);"></rect><rect transform="translate(0,30)" class="bar" x="401" width="23" y="17.7295118674429" height="35.12763098969995" style="fill: rgb(105, 174, 191);"></rect><rect transform="translate(0,30)" class="bar" x="426" width="23" y="42.08687863860277" height="10.770264218540085" style="fill: rgb(105, 156, 191);"></rect><rect transform="translate(0,30)" class="bar" x="451" width="23" y="52.360053739364076" height="0.49708911777877773" style="fill: rgb(105, 139, 191);"></rect><rect transform="translate(0,30)" class="bar" x="476" width="23" y="29.659650694133447" height="23.197492163009407" style="fill: rgb(105, 122, 191);"></rect><rect transform="translate(0,30)" class="bar" x="501" width="23" y="37.77877295118674" height="15.078369905956116" style="fill: rgb(105, 105, 191);"></rect><rect transform="translate(0,30)" class="bar" x="526" width="23" y="11.267353336318854" height="41.589789520824" style="fill: rgb(122, 105, 191);"></rect><rect transform="translate(0,30)" class="bar" x="551" width="23" y="0" height="52.857142857142854" style="fill: rgb(139, 105, 191);"></rect><rect transform="translate(0,30)" class="bar" x="576" width="23" y="4.142409314823106" height="48.71473354231975" style="fill: rgb(156, 105, 191);"></rect><rect transform="translate(0,30)" class="bar" x="601" width="23" y="22.03761755485893" height="30.819525302283925" style="fill: rgb(174, 105, 191);"></rect><rect transform="translate(0,30)" class="bar" x="626" width="23" y="4.805194805194806" height="48.051948051948045" style="fill: rgb(191, 105, 191);"></rect><rect transform="translate(0,30)" class="bar" x="651" width="23" y="27.174205105239587" height="25.682937751903268" style="fill: rgb(191, 105, 174);"></rect><rect transform="translate(0,30)" class="bar" x="676" width="23" y="27.00850873264666" height="25.848634124496193" style="fill: rgb(191, 105, 156);"></rect><rect transform="translate(0,30)" class="bar" x="701" width="23" y="17.23242274966413" height="35.62472010747872" style="fill: rgb(191, 105, 139);"></rect><rect transform="translate(0,30)" class="bar" x="726" width="23" y="32.31079265562024" height="20.546350201522614" style="fill: rgb(191, 105, 122);"></rect></g><g transform="translate(50,82.85714285714286)"><text x="-50" y="23" style="font-size: 10px; font-family: Arial, Helvetica;">5</text><g class="y axis" transform="translate(0,30)" style="font-size: 10px; font-family: Arial, Helvetica;"><g class="tick" transform="translate(0,52.857142857142854)" style="opacity: 1;"><line x2="-6" y2="0" style="shape-rendering: crispEdges; fill: none; stroke: rgb(204, 204, 204);"></line><text dy=".32em" x="-9" y="0" style="text-anchor: end;">0</text></g><g class="tick" transform="translate(0,38.255722178374114)" style="opacity: 1;"><line x2="-6" y2="0" style="shape-rendering: crispEdges; fill: none; stroke: rgb(204, 204, 204);"></line><text dy=".32em" x="-9" y="0" style="text-anchor: end;">200</text></g><g class="tick" transform="translate(0,23.654301499605364)" style="opacity: 1;"><line x2="-6" y2="0" style="shape-rendering: crispEdges; fill: none; stroke: rgb(204, 204, 204);"></line><text dy=".32em" x="-9" y="0" style="text-anchor: end;">400</text></g><g class="tick" transform="translate(0,9.052880820836622)" style="opacity: 1;"><line x2="-6" y2="0" style="shape-rendering: crispEdges; fill: none; stroke: rgb(204, 204, 204);"></line><text dy=".32em" x="-9" y="0" style="text-anchor: end;">600</text></g><path class="domain" d="M-6,0H0V52.857142857142854H-6" style="shape-rendering: crispEdges; fill: none; stroke: rgb(204, 204, 204);"></path></g><rect transform="translate(0,30)" class="bar" x="1" width="23" y="52.711128650355164" height="0.14601420678769017" style="fill: rgb(191, 105, 105);"></rect><rect transform="translate(0,30)" class="bar" x="26" width="23" y="52.49210734017364" height="0.36503551696921477" style="fill: rgb(191, 122, 105);"></rect><rect transform="translate(0,30)" class="bar" x="51" width="23" y="52.711128650355164" height="0.14601420678769017" style="fill: rgb(191, 139, 105);"></rect><rect transform="translate(0,30)" class="bar" x="76" width="23" y="49.13378058405683" height="3.7233622730860247" style="fill: rgb(191, 156, 105);"></rect><rect transform="translate(0,30)" class="bar" x="101" width="23" y="50.08287292817679" height="2.7742699289660635" style="fill: rgb(191, 174, 105);"></rect><rect transform="translate(0,30)" class="bar" x="126" width="23" y="44.38831886345698" height="8.468823993685874" style="fill: rgb(191, 191, 105);"></rect><rect transform="translate(0,30)" class="bar" x="151" width="23" y="38.62075769534333" height="14.236385161799525" style="fill: rgb(174, 191, 105);"></rect><rect transform="translate(0,30)" class="bar" x="176" width="23" y="41.02999210734017" height="11.827150749802684" style="fill: rgb(156, 191, 105);"></rect><rect transform="translate(0,30)" class="bar" x="201" width="23" y="33.14522494080505" height="19.711917916337804" style="fill: rgb(139, 191, 105);"></rect><rect transform="translate(0,30)" class="bar" x="226" width="23" y="34.02131018153118" height="18.835832675611677" style="fill: rgb(122, 191, 105);"></rect><rect transform="translate(0,30)" class="bar" x="251" width="23" y="0" height="52.857142857142854" style="fill: rgb(105, 191, 105);"></rect><rect transform="translate(0,30)" class="bar" x="276" width="23" y="7.665745856353593" height="45.19139700078926" style="fill: rgb(105, 191, 122);"></rect><rect transform="translate(0,30)" class="bar" x="301" width="23" y="15.769534333070245" height="37.08760852407261" style="fill: rgb(105, 191, 139);"></rect><rect transform="translate(0,30)" class="bar" x="326" width="23" y="22.55919494869771" height="30.297947908445146" style="fill: rgb(105, 191, 156);"></rect><rect transform="translate(0,30)" class="bar" x="351" width="23" y="31.028018942383582" height="21.829123914759272" style="fill: rgb(105, 191, 174);"></rect><rect transform="translate(0,30)" class="bar" x="376" width="23" y="22.7052091554854" height="30.151933701657455" style="fill: rgb(105, 191, 191);"></rect><rect transform="translate(0,30)" class="bar" x="401" width="23" y="34.459352801894234" height="18.39779005524862" style="fill: rgb(105, 174, 191);"></rect><rect transform="translate(0,30)" class="bar" x="426" width="23" y="35.33543804262036" height="17.521704814522494" style="fill: rgb(105, 156, 191);"></rect><rect transform="translate(0,30)" class="bar" x="451" width="23" y="52.78413575374901" height="0.07300710339384153" style="fill: rgb(105, 139, 191);"></rect><rect transform="translate(0,30)" class="bar" x="476" width="23" y="40.007892659826354" height="12.8492501973165" style="fill: rgb(105, 122, 191);"></rect><rect transform="translate(0,30)" class="bar" x="501" width="23" y="44.972375690607734" height="7.88476716653512" style="fill: rgb(105, 105, 191);"></rect><rect transform="translate(0,30)" class="bar" x="526" width="23" y="36.5765588003157" height="16.280584056827152" style="fill: rgb(122, 105, 191);"></rect><rect transform="translate(0,30)" class="bar" x="551" width="23" y="42.27111286503551" height="10.586029992107342" style="fill: rgb(139, 105, 191);"></rect><rect transform="translate(0,30)" class="bar" x="576" width="23" y="46.65153906866614" height="6.205603788476715" style="fill: rgb(156, 105, 191);"></rect><rect transform="translate(0,30)" class="bar" x="601" width="23" y="36.722573007103385" height="16.13456985003947" style="fill: rgb(174, 105, 191);"></rect><rect transform="translate(0,30)" class="bar" x="626" width="23" y="45.41041831097079" height="7.446724546172064" style="fill: rgb(191, 105, 191);"></rect><rect transform="translate(0,30)" class="bar" x="651" width="23" y="49.498816101026044" height="3.35832675611681" style="fill: rgb(191, 105, 174);"></rect><rect transform="translate(0,30)" class="bar" x="676" width="23" y="48.98776637726914" height="3.869376479873715" style="fill: rgb(191, 105, 156);"></rect><rect transform="translate(0,30)" class="bar" x="701" width="23" y="33.437253354380424" height="19.41988950276243" style="fill: rgb(191, 105, 139);"></rect><rect transform="translate(0,30)" class="bar" x="726" width="23" y="48.47671665351223" height="4.380426203630627" style="fill: rgb(191, 105, 122);"></rect></g><g transform="translate(50,165.71428571428572)"><text x="-50" y="23" style="font-size: 10px; font-family: Arial, Helvetica;">4</text><g class="y axis" transform="translate(0,30)" style="font-size: 10px; font-family: Arial, Helvetica;"><g class="tick" transform="translate(0,52.857142857142854)" style="opacity: 1;"><line x2="-6" y2="0" style="shape-rendering: crispEdges; fill: none; stroke: rgb(204, 204, 204);"></line><text dy=".32em" x="-9" y="0" style="text-anchor: end;">0</text></g><g class="tick" transform="translate(0,32.20982142857142)" style="opacity: 1;"><line x2="-6" y2="0" style="shape-rendering: crispEdges; fill: none; stroke: rgb(204, 204, 204);"></line><text dy=".32em" x="-9" y="0" style="text-anchor: end;">100</text></g><g class="tick" transform="translate(0,11.5625)" style="opacity: 1;"><line x2="-6" y2="0" style="shape-rendering: crispEdges; fill: none; stroke: rgb(204, 204, 204);"></line><text dy=".32em" x="-9" y="0" style="text-anchor: end;">200</text></g><path class="domain" d="M-6,0H0V52.857142857142854H-6" style="shape-rendering: crispEdges; fill: none; stroke: rgb(204, 204, 204);"></path></g><rect transform="translate(0,30)" class="bar" x="26" width="23" y="52.23772321428571" height="0.6194196428571459" style="fill: rgb(191, 122, 105);"></rect><rect transform="translate(0,30)" class="bar" x="51" width="23" y="51.824776785714285" height="1.0323660714285694" style="fill: rgb(191, 139, 105);"></rect><rect transform="translate(0,30)" class="bar" x="76" width="23" y="52.03125" height="0.8258928571428541" style="fill: rgb(191, 156, 105);"></rect><rect transform="translate(0,30)" class="bar" x="101" width="23" y="47.90178571428571" height="4.955357142857146" style="fill: rgb(191, 174, 105);"></rect><rect transform="translate(0,30)" class="bar" x="126" width="23" y="45.630580357142854" height="7.2265625" style="fill: rgb(191, 191, 105);"></rect><rect transform="translate(0,30)" class="bar" x="151" width="23" y="36.1328125" height="16.724330357142854" style="fill: rgb(174, 191, 105);"></rect><rect transform="translate(0,30)" class="bar" x="176" width="23" y="19.408482142857142" height="33.44866071428571" style="fill: rgb(156, 191, 105);"></rect><rect transform="translate(0,30)" class="bar" x="201" width="23" y="14.659598214285714" height="38.19754464285714" style="fill: rgb(139, 191, 105);"></rect><rect transform="translate(0,30)" class="bar" x="226" width="23" y="2.6841517857142856" height="50.17299107142857" style="fill: rgb(122, 191, 105);"></rect><rect transform="translate(0,30)" class="bar" x="251" width="23" y="0" height="52.857142857142854" style="fill: rgb(105, 191, 105);"></rect><rect transform="translate(0,30)" class="bar" x="276" width="23" y="7.020089285714286" height="45.83705357142857" style="fill: rgb(105, 191, 122);"></rect><rect transform="translate(0,30)" class="bar" x="301" width="23" y="28.90625" height="23.950892857142854" style="fill: rgb(105, 191, 139);"></rect><rect transform="translate(0,30)" class="bar" x="326" width="23" y="35.926339285714285" height="16.93080357142857" style="fill: rgb(105, 191, 156);"></rect><rect transform="translate(0,30)" class="bar" x="351" width="23" y="37.99107142857142" height="14.86607142857143" style="fill: rgb(105, 191, 174);"></rect><rect transform="translate(0,30)" class="bar" x="376" width="23" y="43.77232142857142" height="9.08482142857143" style="fill: rgb(105, 191, 191);"></rect><rect transform="translate(0,30)" class="bar" x="401" width="23" y="46.25" height="6.607142857142854" style="fill: rgb(105, 174, 191);"></rect><rect transform="translate(0,30)" class="bar" x="426" width="23" y="48.521205357142854" height="4.3359375" style="fill: rgb(105, 156, 191);"></rect><rect transform="translate(0,30)" class="bar" x="451" width="23" y="52.65066964285714" height="0.2064732142857153" style="fill: rgb(105, 139, 191);"></rect><rect transform="translate(0,30)" class="bar" x="476" width="23" y="52.23772321428571" height="0.6194196428571459" style="fill: rgb(105, 122, 191);"></rect><rect transform="translate(0,30)" class="bar" x="501" width="23" y="51.61830357142857" height="1.2388392857142847" style="fill: rgb(105, 105, 191);"></rect><rect transform="translate(0,30)" class="bar" x="526" width="23" y="49.55357142857142" height="3.3035714285714306" style="fill: rgb(122, 105, 191);"></rect><rect transform="translate(0,30)" class="bar" x="551" width="23" y="51.411830357142854" height="1.4453125" style="fill: rgb(139, 105, 191);"></rect><rect transform="translate(0,30)" class="bar" x="576" width="23" y="51.20535714285714" height="1.6517857142857153" style="fill: rgb(156, 105, 191);"></rect><rect transform="translate(0,30)" class="bar" x="601" width="23" y="52.03125" height="0.8258928571428541" style="fill: rgb(174, 105, 191);"></rect><rect transform="translate(0,30)" class="bar" x="626" width="23" y="51.61830357142857" height="1.2388392857142847" style="fill: rgb(191, 105, 191);"></rect><rect transform="translate(0,30)" class="bar" x="651" width="23" y="51.61830357142857" height="1.2388392857142847" style="fill: rgb(191, 105, 174);"></rect><rect transform="translate(0,30)" class="bar" x="676" width="23" y="50.99888392857142" height="1.8582589285714306" style="fill: rgb(191, 105, 156);"></rect><rect transform="translate(0,30)" class="bar" x="701" width="23" y="48.521205357142854" height="4.3359375" style="fill: rgb(191, 105, 139);"></rect><rect transform="translate(0,30)" class="bar" x="726" width="23" y="49.76004464285714" height="3.0970982142857153" style="fill: rgb(191, 105, 122);"></rect></g><g transform="translate(50,248.57142857142858)"><text x="-50" y="23" style="font-size: 10px; font-family: Arial, Helvetica;">3</text><g class="y axis" transform="translate(0,30)" style="font-size: 10px; font-family: Arial, Helvetica;"><g class="tick" transform="translate(0,52.857142857142854)" style="opacity: 1;"><line x2="-6" y2="0" style="shape-rendering: crispEdges; fill: none; stroke: rgb(204, 204, 204);"></line><text dy=".32em" x="-9" y="0" style="text-anchor: end;">0</text></g><g class="tick" transform="translate(0,37.624536846438865)" style="opacity: 1;"><line x2="-6" y2="0" style="shape-rendering: crispEdges; fill: none; stroke: rgb(204, 204, 204);"></line><text dy=".32em" x="-9" y="0" style="text-anchor: end;">200</text></g><g class="tick" transform="translate(0,22.39193083573487)" style="opacity: 1;"><line x2="-6" y2="0" style="shape-rendering: crispEdges; fill: none; stroke: rgb(204, 204, 204);"></line><text dy=".32em" x="-9" y="0" style="text-anchor: end;">400</text></g><g class="tick" transform="translate(0,7.159324825030879)" style="opacity: 1;"><line x2="-6" y2="0" style="shape-rendering: crispEdges; fill: none; stroke: rgb(204, 204, 204);"></line><text dy=".32em" x="-9" y="0" style="text-anchor: end;">600</text></g><path class="domain" d="M-6,0H0V52.857142857142854H-6" style="shape-rendering: crispEdges; fill: none; stroke: rgb(204, 204, 204);"></path></g><rect transform="translate(0,30)" class="bar" x="26" width="23" y="52.628653766982296" height="0.22848909016055785" style="fill: rgb(191, 122, 105);"></rect><rect transform="translate(0,30)" class="bar" x="51" width="23" y="52.70481679703581" height="0.1523260601070433" style="fill: rgb(191, 139, 105);"></rect><rect transform="translate(0,30)" class="bar" x="76" width="23" y="51.79086043639357" height="1.0662824207492818" style="fill: rgb(191, 156, 105);"></rect><rect transform="translate(0,30)" class="bar" x="101" width="23" y="48.4396871140387" height="4.417455743104156" style="fill: rgb(191, 174, 105);"></rect><rect transform="translate(0,30)" class="bar" x="126" width="23" y="35.94895018526142" height="16.908192671881437" style="fill: rgb(191, 191, 105);"></rect><rect transform="translate(0,30)" class="bar" x="151" width="23" y="23.991354466858787" height="28.865788390284067" style="fill: rgb(174, 191, 105);"></rect><rect transform="translate(0,30)" class="bar" x="176" width="23" y="0" height="52.857142857142854" style="fill: rgb(156, 191, 105);"></rect><rect transform="translate(0,30)" class="bar" x="201" width="23" y="13.100041169205435" height="39.75710168793742" style="fill: rgb(139, 191, 105);"></rect><rect transform="translate(0,30)" class="bar" x="226" width="23" y="21.934952655413746" height="30.92219020172911" style="fill: rgb(122, 191, 105);"></rect><rect transform="translate(0,30)" class="bar" x="251" width="23" y="26.50473445862495" height="26.352408398517905" style="fill: rgb(105, 191, 105);"></rect><rect transform="translate(0,30)" class="bar" x="276" width="23" y="30.69370111156855" height="22.163441745574303" style="fill: rgb(105, 191, 122);"></rect><rect transform="translate(0,30)" class="bar" x="301" width="23" y="41.9658295594895" height="10.891313297653355" style="fill: rgb(105, 191, 139);"></rect><rect transform="translate(0,30)" class="bar" x="326" width="23" y="41.204199258954304" height="11.65294359818855" style="fill: rgb(105, 191, 156);"></rect><rect transform="translate(0,30)" class="bar" x="351" width="23" y="34.19720049403046" height="18.659942363112393" style="fill: rgb(105, 191, 174);"></rect><rect transform="translate(0,30)" class="bar" x="376" width="23" y="39.37628653766983" height="13.480856319473027" style="fill: rgb(105, 191, 191);"></rect><rect transform="translate(0,30)" class="bar" x="401" width="23" y="42.57513379991766" height="10.282009057225196" style="fill: rgb(105, 174, 191);"></rect><rect transform="translate(0,30)" class="bar" x="426" width="23" y="44.63153561136269" height="8.22560724578016" style="fill: rgb(105, 156, 191);"></rect><rect transform="translate(0,30)" class="bar" x="451" width="23" y="52.628653766982296" height="0.22848909016055785" style="fill: rgb(105, 139, 191);"></rect><rect transform="translate(0,30)" class="bar" x="476" width="23" y="46.9164265129683" height="5.940716344174554" style="fill: rgb(105, 122, 191);"></rect><rect transform="translate(0,30)" class="bar" x="501" width="23" y="50.267599835323175" height="2.5895430218196793" style="fill: rgb(105, 105, 191);"></rect><rect transform="translate(0,30)" class="bar" x="526" width="23" y="47.60189378344998" height="5.255249073692873" style="fill: rgb(122, 105, 191);"></rect><rect transform="translate(0,30)" class="bar" x="551" width="23" y="50.572251955537254" height="2.2848909016056" style="fill: rgb(139, 105, 191);"></rect><rect transform="translate(0,30)" class="bar" x="576" width="23" y="49.658295594895016" height="3.1988472622478383" style="fill: rgb(156, 105, 191);"></rect><rect transform="translate(0,30)" class="bar" x="601" width="23" y="49.658295594895016" height="3.1988472622478383" style="fill: rgb(174, 105, 191);"></rect><rect transform="translate(0,30)" class="bar" x="626" width="23" y="51.02923013585837" height="1.8279127212844841" style="fill: rgb(191, 105, 191);"></rect><rect transform="translate(0,30)" class="bar" x="651" width="23" y="48.74433923425278" height="4.112803622890077" style="fill: rgb(191, 105, 174);"></rect><rect transform="translate(0,30)" class="bar" x="676" width="23" y="50.80074104569781" height="2.056401811445042" style="fill: rgb(191, 105, 156);"></rect><rect transform="translate(0,30)" class="bar" x="701" width="23" y="45.85014409221902" height="7.006998764923836" style="fill: rgb(191, 105, 139);"></rect><rect transform="translate(0,30)" class="bar" x="726" width="23" y="49.73445862494853" height="3.122684232194324" style="fill: rgb(191, 105, 122);"></rect></g><g transform="translate(50,331.42857142857144)"><text x="-50" y="23" style="font-size: 10px; font-family: Arial, Helvetica;">2</text><g class="y axis" transform="translate(0,30)" style="font-size: 10px; font-family: Arial, Helvetica;"><g class="tick" transform="translate(0,52.857142857142854)" style="opacity: 1;"><line x2="-6" y2="0" style="shape-rendering: crispEdges; fill: none; stroke: rgb(204, 204, 204);"></line><text dy=".32em" x="-9" y="0" style="text-anchor: end;">0</text></g><g class="tick" transform="translate(0,38.873771730914584)" style="opacity: 1;"><line x2="-6" y2="0" style="shape-rendering: crispEdges; fill: none; stroke: rgb(204, 204, 204);"></line><text dy=".32em" x="-9" y="0" style="text-anchor: end;">100</text></g><g class="tick" transform="translate(0,24.89040060468632)" style="opacity: 1;"><line x2="-6" y2="0" style="shape-rendering: crispEdges; fill: none; stroke: rgb(204, 204, 204);"></line><text dy=".32em" x="-9" y="0" style="text-anchor: end;">200</text></g><g class="tick" transform="translate(0,10.907029478458051)" style="opacity: 1;"><line x2="-6" y2="0" style="shape-rendering: crispEdges; fill: none; stroke: rgb(204, 204, 204);"></line><text dy=".32em" x="-9" y="0" style="text-anchor: end;">300</text></g><path class="domain" d="M-6,0H0V52.857142857142854H-6" style="shape-rendering: crispEdges; fill: none; stroke: rgb(204, 204, 204);"></path></g><rect transform="translate(0,30)" class="bar" x="26" width="23" y="52.71730914588057" height="0.13983371126228406" style="fill: rgb(191, 122, 105);"></rect><rect transform="translate(0,30)" class="bar" x="51" width="23" y="52.15797430083144" height="0.6991685563114132" style="fill: rgb(191, 139, 105);"></rect><rect transform="translate(0,30)" class="bar" x="76" width="23" y="52.018140589569164" height="0.8390022675736901" style="fill: rgb(191, 156, 105);"></rect><rect transform="translate(0,30)" class="bar" x="101" width="23" y="46.14512471655328" height="6.712018140589571" style="fill: rgb(191, 174, 105);"></rect><rect transform="translate(0,30)" class="bar" x="126" width="23" y="45.30612244897959" height="7.551020408163261" style="fill: rgb(191, 191, 105);"></rect><rect transform="translate(0,30)" class="bar" x="151" width="23" y="48.24263038548752" height="4.614512471655331" style="fill: rgb(174, 191, 105);"></rect><rect transform="translate(0,30)" class="bar" x="176" width="23" y="39.293272864701436" height="13.563869992441418" style="fill: rgb(156, 191, 105);"></rect><rect transform="translate(0,30)" class="bar" x="201" width="23" y="20.27588813303099" height="32.581254724111865" style="fill: rgb(139, 191, 105);"></rect><rect transform="translate(0,30)" class="bar" x="226" width="23" y="37.89493575207861" height="14.962207105064245" style="fill: rgb(122, 191, 105);"></rect><rect transform="translate(0,30)" class="bar" x="251" width="23" y="40.411942554799694" height="12.44520030234316" style="fill: rgb(105, 191, 105);"></rect><rect transform="translate(0,30)" class="bar" x="276" width="23" y="42.50944822373393" height="10.34769463340892" style="fill: rgb(105, 191, 122);"></rect><rect transform="translate(0,30)" class="bar" x="301" width="23" y="46.98412698412698" height="5.8730158730158735" style="fill: rgb(105, 191, 139);"></rect><rect transform="translate(0,30)" class="bar" x="326" width="23" y="49.78080120937264" height="3.0763416477702137" style="fill: rgb(105, 191, 156);"></rect><rect transform="translate(0,30)" class="bar" x="351" width="23" y="33.56009070294784" height="19.297052154195015" style="fill: rgb(105, 191, 174);"></rect><rect transform="translate(0,30)" class="bar" x="376" width="23" y="27.407407407407412" height="25.449735449735442" style="fill: rgb(105, 191, 191);"></rect><rect transform="translate(0,30)" class="bar" x="401" width="23" y="0" height="52.857142857142854" style="fill: rgb(105, 174, 191);"></rect><rect transform="translate(0,30)" class="bar" x="426" width="23" y="22.653061224489797" height="30.204081632653057" style="fill: rgb(105, 156, 191);"></rect><rect transform="translate(0,30)" class="bar" x="451" width="23" y="52.71730914588057" height="0.13983371126228406" style="fill: rgb(105, 139, 191);"></rect><rect transform="translate(0,30)" class="bar" x="476" width="23" y="19.856386999244144" height="33.00075585789871" style="fill: rgb(105, 122, 191);"></rect><rect transform="translate(0,30)" class="bar" x="501" width="23" y="44.74678760393046" height="8.110355253212397" style="fill: rgb(105, 105, 191);"></rect><rect transform="translate(0,30)" class="bar" x="526" width="23" y="27.26757369614512" height="25.589569160997733" style="fill: rgb(122, 105, 191);"></rect><rect transform="translate(0,30)" class="bar" x="551" width="23" y="14.263038548752835" height="38.594104308390015" style="fill: rgb(139, 105, 191);"></rect><rect transform="translate(0,30)" class="bar" x="576" width="23" y="8.250188964474676" height="44.60695389266818" style="fill: rgb(156, 105, 191);"></rect><rect transform="translate(0,30)" class="bar" x="601" width="23" y="15.66137566137566" height="37.195767195767196" style="fill: rgb(174, 105, 191);"></rect><rect transform="translate(0,30)" class="bar" x="626" width="23" y="32.16175359032502" height="20.695389266817834" style="fill: rgb(191, 105, 191);"></rect><rect transform="translate(0,30)" class="bar" x="651" width="23" y="12.724867724867721" height="40.13227513227513" style="fill: rgb(191, 105, 174);"></rect><rect transform="translate(0,30)" class="bar" x="676" width="23" y="28.94557823129252" height="23.911564625850335" style="fill: rgb(191, 105, 156);"></rect><rect transform="translate(0,30)" class="bar" x="701" width="23" y="17.339380196523052" height="35.5177626606198" style="fill: rgb(191, 105, 139);"></rect><rect transform="translate(0,30)" class="bar" x="726" width="23" y="30.763416477702194" height="22.09372637944066" style="fill: rgb(191, 105, 122);"></rect></g><g transform="translate(50,414.28571428571433)"><text x="-50" y="23" style="font-size: 10px; font-family: Arial, Helvetica;">1</text><g class="y axis" transform="translate(0,30)" style="font-size: 10px; font-family: Arial, Helvetica;"><g class="tick" transform="translate(0,52.857142857142854)" style="opacity: 1;"><line x2="-6" y2="0" style="shape-rendering: crispEdges; fill: none; stroke: rgb(204, 204, 204);"></line><text dy=".32em" x="-9" y="0" style="text-anchor: end;">0</text></g><g class="tick" transform="translate(0,38.17460317460317)" style="opacity: 1;"><line x2="-6" y2="0" style="shape-rendering: crispEdges; fill: none; stroke: rgb(204, 204, 204);"></line><text dy=".32em" x="-9" y="0" style="text-anchor: end;">200</text></g><g class="tick" transform="translate(0,23.49206349206349)" style="opacity: 1;"><line x2="-6" y2="0" style="shape-rendering: crispEdges; fill: none; stroke: rgb(204, 204, 204);"></line><text dy=".32em" x="-9" y="0" style="text-anchor: end;">400</text></g><g class="tick" transform="translate(0,8.809523809523807)" style="opacity: 1;"><line x2="-6" y2="0" style="shape-rendering: crispEdges; fill: none; stroke: rgb(204, 204, 204);"></line><text dy=".32em" x="-9" y="0" style="text-anchor: end;">600</text></g><path class="domain" d="M-6,0H0V52.857142857142854H-6" style="shape-rendering: crispEdges; fill: none; stroke: rgb(204, 204, 204);"></path></g><rect transform="translate(0,30)" class="bar" x="51" width="23" y="52.63690476190476" height="0.2202380952380949" style="fill: rgb(191, 139, 105);"></rect><rect transform="translate(0,30)" class="bar" x="76" width="23" y="51.97619047619047" height="0.8809523809523867" style="fill: rgb(191, 156, 105);"></rect><rect transform="translate(0,30)" class="bar" x="101" width="23" y="50.507936507936506" height="2.349206349206348" style="fill: rgb(191, 174, 105);"></rect><rect transform="translate(0,30)" class="bar" x="126" width="23" y="50.06746031746031" height="2.789682539682545" style="fill: rgb(191, 191, 105);"></rect><rect transform="translate(0,30)" class="bar" x="151" width="23" y="48.525793650793645" height="4.331349206349209" style="fill: rgb(174, 191, 105);"></rect><rect transform="translate(0,30)" class="bar" x="176" width="23" y="33.329365079365076" height="19.52777777777778" style="fill: rgb(156, 191, 105);"></rect><rect transform="translate(0,30)" class="bar" x="201" width="23" y="23.85912698412698" height="28.998015873015873" style="fill: rgb(139, 191, 105);"></rect><rect transform="translate(0,30)" class="bar" x="226" width="23" y="20.18849206349206" height="32.6686507936508" style="fill: rgb(122, 191, 105);"></rect><rect transform="translate(0,30)" class="bar" x="251" width="23" y="15.636904761904757" height="37.220238095238095" style="fill: rgb(105, 191, 105);"></rect><rect transform="translate(0,30)" class="bar" x="276" width="23" y="0" height="52.857142857142854" style="fill: rgb(105, 191, 122);"></rect><rect transform="translate(0,30)" class="bar" x="301" width="23" y="9.3234126984127" height="43.53373015873015" style="fill: rgb(105, 191, 139);"></rect><rect transform="translate(0,30)" class="bar" x="326" width="23" y="16.884920634920633" height="35.97222222222222" style="fill: rgb(105, 191, 156);"></rect><rect transform="translate(0,30)" class="bar" x="351" width="23" y="21.730158730158728" height="31.126984126984127" style="fill: rgb(105, 191, 174);"></rect><rect transform="translate(0,30)" class="bar" x="376" width="23" y="37.73412698412698" height="15.123015873015873" style="fill: rgb(105, 191, 191);"></rect><rect transform="translate(0,30)" class="bar" x="401" width="23" y="41.77182539682539" height="11.085317460317462" style="fill: rgb(105, 174, 191);"></rect><rect transform="translate(0,30)" class="bar" x="426" width="23" y="35.164682539682545" height="17.69246031746031" style="fill: rgb(105, 156, 191);"></rect><rect transform="translate(0,30)" class="bar" x="451" width="23" y="51.60912698412698" height="1.2480158730158735" style="fill: rgb(105, 139, 191);"></rect><rect transform="translate(0,30)" class="bar" x="476" width="23" y="42.65277777777778" height="10.204365079365076" style="fill: rgb(105, 122, 191);"></rect><rect transform="translate(0,30)" class="bar" x="501" width="23" y="50.948412698412696" height="1.9087301587301582" style="fill: rgb(105, 105, 191);"></rect><rect transform="translate(0,30)" class="bar" x="526" width="23" y="24.005952380952383" height="28.85119047619047" style="fill: rgb(122, 105, 191);"></rect><rect transform="translate(0,30)" class="bar" x="551" width="23" y="31.93452380952381" height="20.922619047619044" style="fill: rgb(139, 105, 191);"></rect><rect transform="translate(0,30)" class="bar" x="576" width="23" y="44.047619047619044" height="8.80952380952381" style="fill: rgb(156, 105, 191);"></rect><rect transform="translate(0,30)" class="bar" x="601" width="23" y="42.579365079365076" height="10.277777777777779" style="fill: rgb(174, 105, 191);"></rect><rect transform="translate(0,30)" class="bar" x="626" width="23" y="30.83333333333333" height="22.023809523809526" style="fill: rgb(191, 105, 191);"></rect><rect transform="translate(0,30)" class="bar" x="651" width="23" y="31.787698412698408" height="21.069444444444446" style="fill: rgb(191, 105, 174);"></rect><rect transform="translate(0,30)" class="bar" x="676" width="23" y="43.019841269841265" height="9.837301587301589" style="fill: rgb(191, 105, 156);"></rect><rect transform="translate(0,30)" class="bar" x="701" width="23" y="45.22222222222222" height="7.634920634920633" style="fill: rgb(191, 105, 139);"></rect><rect transform="translate(0,30)" class="bar" x="726" width="23" y="48.01190476190476" height="4.845238095238095" style="fill: rgb(191, 105, 122);"></rect></g><g transform="translate(50,497.14285714285717)"><text x="-50" y="23" style="font-size: 10px; font-family: Arial, Helvetica;">0</text><g class="y axis" transform="translate(0,30)" style="font-size: 10px; font-family: Arial, Helvetica;"><g class="tick" transform="translate(0,52.857142857142854)" style="opacity: 1;"><line x2="-6" y2="0" style="shape-rendering: crispEdges; fill: none; stroke: rgb(204, 204, 204);"></line><text dy=".32em" x="-9" y="0" style="text-anchor: end;">0</text></g><g class="tick" transform="translate(0,38.23552657577554)" style="opacity: 1;"><line x2="-6" y2="0" style="shape-rendering: crispEdges; fill: none; stroke: rgb(204, 204, 204);"></line><text dy=".32em" x="-9" y="0" style="text-anchor: end;">200</text></g><g class="tick" transform="translate(0,23.613910294408218)" style="opacity: 1;"><line x2="-6" y2="0" style="shape-rendering: crispEdges; fill: none; stroke: rgb(204, 204, 204);"></line><text dy=".32em" x="-9" y="0" style="text-anchor: end;">400</text></g><g class="tick" transform="translate(0,8.992294013040897)" style="opacity: 1;"><line x2="-6" y2="0" style="shape-rendering: crispEdges; fill: none; stroke: rgb(204, 204, 204);"></line><text dy=".32em" x="-9" y="0" style="text-anchor: end;">600</text></g><path class="domain" d="M-6,0H0V52.857142857142854H-6" style="shape-rendering: crispEdges; fill: none; stroke: rgb(204, 204, 204);"></path></g><rect transform="translate(0,30)" class="bar" x="26" width="23" y="52.345386287295" height="0.5117565698478543" style="fill: rgb(191, 122, 105);"></rect><rect transform="translate(0,30)" class="bar" x="51" width="23" y="51.687413554633466" height="1.1697293025093884" style="fill: rgb(191, 139, 105);"></rect><rect transform="translate(0,30)" class="bar" x="76" width="23" y="50.517684252124084" height="2.33945860501877" style="fill: rgb(191, 156, 105);"></rect><rect transform="translate(0,30)" class="bar" x="101" width="23" y="44.1572811697293" height="8.699861687413552" style="fill: rgb(191, 174, 105);"></rect><rect transform="translate(0,30)" class="bar" x="126" width="23" y="37.94309425014819" height="14.914048606994662" style="fill: rgb(191, 191, 105);"></rect><rect transform="translate(0,30)" class="bar" x="151" width="23" y="34.58012250543371" height="18.277020351709147" style="fill: rgb(174, 191, 105);"></rect><rect transform="translate(0,30)" class="bar" x="176" width="23" y="27.56174669037739" height="25.295396166765464" style="fill: rgb(156, 191, 105);"></rect><rect transform="translate(0,30)" class="bar" x="201" width="23" y="0" height="52.857142857142854" style="fill: rgb(139, 191, 105);"></rect><rect transform="translate(0,30)" class="bar" x="226" width="23" y="14.109859711519464" height="38.74728314562339" style="fill: rgb(122, 191, 105);"></rect><rect transform="translate(0,30)" class="bar" x="251" width="23" y="23.54080221300138" height="29.316340644141473" style="fill: rgb(105, 191, 105);"></rect><rect transform="translate(0,30)" class="bar" x="276" width="23" y="22.22485674767832" height="30.632286109464534" style="fill: rgb(105, 191, 122);"></rect><rect transform="translate(0,30)" class="bar" x="301" width="23" y="46.642955937561744" height="6.21418691958111" style="fill: rgb(105, 191, 139);"></rect><rect transform="translate(0,30)" class="bar" x="326" width="23" y="49.347954949614696" height="3.5091879075281582" style="fill: rgb(105, 191, 156);"></rect><rect transform="translate(0,30)" class="bar" x="351" width="23" y="43.572416518474604" height="9.28472633866825" style="fill: rgb(105, 191, 174);"></rect><rect transform="translate(0,30)" class="bar" x="376" width="23" y="48.68998221695317" height="4.167160640189685" style="fill: rgb(105, 191, 191);"></rect><rect transform="translate(0,30)" class="bar" x="401" width="23" y="51.17565698478561" height="1.6814858723572428" style="fill: rgb(105, 174, 191);"></rect><rect transform="translate(0,30)" class="bar" x="426" width="23" y="50.517684252124084" height="2.33945860501877" style="fill: rgb(105, 156, 191);"></rect><rect transform="translate(0,30)" class="bar" x="451" width="23" y="52.78403477573602" height="0.07310808140683633" style="fill: rgb(105, 139, 191);"></rect><rect transform="translate(0,30)" class="bar" x="476" width="23" y="52.27227820588816" height="0.5848646512546907" style="fill: rgb(105, 122, 191);"></rect><rect transform="translate(0,30)" class="bar" x="501" width="23" y="52.78403477573602" height="0.07310808140683633" style="fill: rgb(105, 105, 191);"></rect><rect transform="translate(0,30)" class="bar" x="526" width="23" y="52.345386287295" height="0.5117565698478543" style="fill: rgb(122, 105, 191);"></rect><rect transform="translate(0,30)" class="bar" x="551" width="23" y="52.052953961667654" height="0.8041888954751997" style="fill: rgb(139, 105, 191);"></rect><rect transform="translate(0,30)" class="bar" x="576" width="23" y="50.07903576368306" height="2.778107093459795" style="fill: rgb(156, 105, 191);"></rect><rect transform="translate(0,30)" class="bar" x="601" width="23" y="52.71092669432918" height="0.14621616281367267" style="fill: rgb(174, 105, 191);"></rect><rect transform="translate(0,30)" class="bar" x="626" width="23" y="51.54119739181979" height="1.3159454653230611" style="fill: rgb(191, 105, 191);"></rect><rect transform="translate(0,30)" class="bar" x="651" width="23" y="48.982414542580514" height="3.87472831456234" style="fill: rgb(191, 105, 174);"></rect><rect transform="translate(0,30)" class="bar" x="676" width="23" y="48.10511756569848" height="4.752025291444376" style="fill: rgb(191, 105, 156);"></rect><rect transform="translate(0,30)" class="bar" x="701" width="23" y="52.56471053151551" height="0.29243232562734534" style="fill: rgb(191, 105, 139);"></rect><rect transform="translate(0,30)" class="bar" x="726" width="23" y="50.73700849634459" height="2.120134360798261" style="fill: rgb(191, 105, 122);"></rect></g><g class="x axis" transform="translate(50,580)" style="font-size: 10px; font-family: Arial, Helvetica;"><g class="tick" transform="translate(12.5,0)" style="opacity: 1;"><line y2="6" x2="0" style="shape-rendering: crispEdges; fill: none; stroke: rgb(204, 204, 204);"></line><text dy=".71em" y="9" x="0" style="text-anchor: middle;">1983</text></g><g class="tick" transform="translate(37.5,0)" style="opacity: 1;"><line y2="6" x2="0" style="shape-rendering: crispEdges; fill: none; stroke: rgb(204, 204, 204);"></line><text dy=".71em" y="9" x="0" style="text-anchor: middle;">1984</text></g><g class="tick" transform="translate(62.5,0)" style="opacity: 1;"><line y2="6" x2="0" style="shape-rendering: crispEdges; fill: none; stroke: rgb(204, 204, 204);"></line><text dy=".71em" y="9" x="0" style="text-anchor: middle;">1985</text></g><g class="tick" transform="translate(87.5,0)" style="opacity: 1;"><line y2="6" x2="0" style="shape-rendering: crispEdges; fill: none; stroke: rgb(204, 204, 204);"></line><text dy=".71em" y="9" x="0" style="text-anchor: middle;">1986</text></g><g class="tick" transform="translate(112.5,0)" style="opacity: 1;"><line y2="6" x2="0" style="shape-rendering: crispEdges; fill: none; stroke: rgb(204, 204, 204);"></line><text dy=".71em" y="9" x="0" style="text-anchor: middle;">1987</text></g><g class="tick" transform="translate(137.5,0)" style="opacity: 1;"><line y2="6" x2="0" style="shape-rendering: crispEdges; fill: none; stroke: rgb(204, 204, 204);"></line><text dy=".71em" y="9" x="0" style="text-anchor: middle;">1988</text></g><g class="tick" transform="translate(162.5,0)" style="opacity: 1;"><line y2="6" x2="0" style="shape-rendering: crispEdges; fill: none; stroke: rgb(204, 204, 204);"></line><text dy=".71em" y="9" x="0" style="text-anchor: middle;">1989</text></g><g class="tick" transform="translate(187.5,0)" style="opacity: 1;"><line y2="6" x2="0" style="shape-rendering: crispEdges; fill: none; stroke: rgb(204, 204, 204);"></line><text dy=".71em" y="9" x="0" style="text-anchor: middle;">1990</text></g><g class="tick" transform="translate(212.5,0)" style="opacity: 1;"><line y2="6" x2="0" style="shape-rendering: crispEdges; fill: none; stroke: rgb(204, 204, 204);"></line><text dy=".71em" y="9" x="0" style="text-anchor: middle;">1991</text></g><g class="tick" transform="translate(237.5,0)" style="opacity: 1;"><line y2="6" x2="0" style="shape-rendering: crispEdges; fill: none; stroke: rgb(204, 204, 204);"></line><text dy=".71em" y="9" x="0" style="text-anchor: middle;">1992</text></g><g class="tick" transform="translate(262.5,0)" style="opacity: 1;"><line y2="6" x2="0" style="shape-rendering: crispEdges; fill: none; stroke: rgb(204, 204, 204);"></line><text dy=".71em" y="9" x="0" style="text-anchor: middle;">1993</text></g><g class="tick" transform="translate(287.5,0)" style="opacity: 1;"><line y2="6" x2="0" style="shape-rendering: crispEdges; fill: none; stroke: rgb(204, 204, 204);"></line><text dy=".71em" y="9" x="0" style="text-anchor: middle;">1994</text></g><g class="tick" transform="translate(312.5,0)" style="opacity: 1;"><line y2="6" x2="0" style="shape-rendering: crispEdges; fill: none; stroke: rgb(204, 204, 204);"></line><text dy=".71em" y="9" x="0" style="text-anchor: middle;">1995</text></g><g class="tick" transform="translate(337.5,0)" style="opacity: 1;"><line y2="6" x2="0" style="shape-rendering: crispEdges; fill: none; stroke: rgb(204, 204, 204);"></line><text dy=".71em" y="9" x="0" style="text-anchor: middle;">1996</text></g><g class="tick" transform="translate(362.5,0)" style="opacity: 1;"><line y2="6" x2="0" style="shape-rendering: crispEdges; fill: none; stroke: rgb(204, 204, 204);"></line><text dy=".71em" y="9" x="0" style="text-anchor: middle;">1997</text></g><g class="tick" transform="translate(387.5,0)" style="opacity: 1;"><line y2="6" x2="0" style="shape-rendering: crispEdges; fill: none; stroke: rgb(204, 204, 204);"></line><text dy=".71em" y="9" x="0" style="text-anchor: middle;">1998</text></g><g class="tick" transform="translate(412.5,0)" style="opacity: 1;"><line y2="6" x2="0" style="shape-rendering: crispEdges; fill: none; stroke: rgb(204, 204, 204);"></line><text dy=".71em" y="9" x="0" style="text-anchor: middle;">1999</text></g><g class="tick" transform="translate(437.5,0)" style="opacity: 1;"><line y2="6" x2="0" style="shape-rendering: crispEdges; fill: none; stroke: rgb(204, 204, 204);"></line><text dy=".71em" y="9" x="0" style="text-anchor: middle;">2000</text></g><g class="tick" transform="translate(462.5,0)" style="opacity: 1;"><line y2="6" x2="0" style="shape-rendering: crispEdges; fill: none; stroke: rgb(204, 204, 204);"></line><text dy=".71em" y="9" x="0" style="text-anchor: middle;">2002</text></g><g class="tick" transform="translate(487.5,0)" style="opacity: 1;"><line y2="6" x2="0" style="shape-rendering: crispEdges; fill: none; stroke: rgb(204, 204, 204);"></line><text dy=".71em" y="9" x="0" style="text-anchor: middle;">2003</text></g><g class="tick" transform="translate(512.5,0)" style="opacity: 1;"><line y2="6" x2="0" style="shape-rendering: crispEdges; fill: none; stroke: rgb(204, 204, 204);"></line><text dy=".71em" y="9" x="0" style="text-anchor: middle;">2004</text></g><g class="tick" transform="translate(537.5,0)" style="opacity: 1;"><line y2="6" x2="0" style="shape-rendering: crispEdges; fill: none; stroke: rgb(204, 204, 204);"></line><text dy=".71em" y="9" x="0" style="text-anchor: middle;">2009</text></g><g class="tick" transform="translate(562.5,0)" style="opacity: 1;"><line y2="6" x2="0" style="shape-rendering: crispEdges; fill: none; stroke: rgb(204, 204, 204);"></line><text dy=".71em" y="9" x="0" style="text-anchor: middle;">2010</text></g><g class="tick" transform="translate(587.5,0)" style="opacity: 1;"><line y2="6" x2="0" style="shape-rendering: crispEdges; fill: none; stroke: rgb(204, 204, 204);"></line><text dy=".71em" y="9" x="0" style="text-anchor: middle;">2011</text></g><g class="tick" transform="translate(612.5,0)" style="opacity: 1;"><line y2="6" x2="0" style="shape-rendering: crispEdges; fill: none; stroke: rgb(204, 204, 204);"></line><text dy=".71em" y="9" x="0" style="text-anchor: middle;">2012</text></g><g class="tick" transform="translate(637.5,0)" style="opacity: 1;"><line y2="6" x2="0" style="shape-rendering: crispEdges; fill: none; stroke: rgb(204, 204, 204);"></line><text dy=".71em" y="9" x="0" style="text-anchor: middle;">2013</text></g><g class="tick" transform="translate(662.5,0)" style="opacity: 1;"><line y2="6" x2="0" style="shape-rendering: crispEdges; fill: none; stroke: rgb(204, 204, 204);"></line><text dy=".71em" y="9" x="0" style="text-anchor: middle;">2014</text></g><g class="tick" transform="translate(687.5,0)" style="opacity: 1;"><line y2="6" x2="0" style="shape-rendering: crispEdges; fill: none; stroke: rgb(204, 204, 204);"></line><text dy=".71em" y="9" x="0" style="text-anchor: middle;">2015</text></g><g class="tick" transform="translate(712.5,0)" style="opacity: 1;"><line y2="6" x2="0" style="shape-rendering: crispEdges; fill: none; stroke: rgb(204, 204, 204);"></line><text dy=".71em" y="9" x="0" style="text-anchor: middle;">2016</text></g><g class="tick" transform="translate(737.5,0)" style="opacity: 1;"><line y2="6" x2="0" style="shape-rendering: crispEdges; fill: none; stroke: rgb(204, 204, 204);"></line><text dy=".71em" y="9" x="0" style="text-anchor: middle;">2017</text></g><path class="domain" d="M0,6V0H750V6" style="shape-rendering: crispEdges; fill: none; stroke: rgb(204, 204, 204);"></path></g></svg>