<svg id="Layer_1" data-name="Layer 1" xmlns="http://www.w3.org/2000/svg" viewBox="0 0 544.82 244.31"><defs><style>.cls-1{fill:#4daf4e;}.cls-2{fill:#feea3a;}.cls-3{opacity:0.12;}.cls-4{fill-opacity:0.18;}</style></defs><title>Artboard 1icon-size</title><path class="cls-1" d="M106.22,33.9h19c2.41,0,3.62,1.21,3.62,3.61v151q0,3.61-3.62,3.62h-19q-3.61,0-3.62-3.62V125a1.2,1.2,0,0,0-1.35-1.36H44.07A1.2,1.2,0,0,0,42.71,125v63.5q0,3.61-3.61,3.62h-19q-3.62,0-3.61-3.62v-151c0-2.4,1.2-3.61,3.61-3.61h19c2.41,0,3.61,1.21,3.61,3.61V99.66A1.2,1.2,0,0,0,44.07,101h57.18a1.2,1.2,0,0,0,1.35-1.36V37.51C102.6,35.11,103.81,33.9,106.22,33.9Z"/><path class="cls-1" d="M184,187.47a48.63,48.63,0,0,1-20.22-19.55q-7.12-12.66-7.12-29.16V87.23q0-16.26,7.23-28.81A49.79,49.79,0,0,1,184.08,39q13-6.88,29.94-6.89,17.17,0,30.17,6.89a49.91,49.91,0,0,1,20.23,19.44q7.23,12.54,7.23,28.81v51.53q0,16.5-7.23,29.16a49.67,49.67,0,0,1-20.23,19.55q-13,6.89-30.17,6.89Q197.07,194.36,184,187.47Zm52.89-24.53q8.58-8.81,8.58-23.27V87q0-14.69-8.58-23.51T214,54.69q-14,0-22.6,8.81T182.83,87v52.66q0,14.46,8.59,23.27t22.6,8.82Q228.26,171.76,236.85,162.94Z"/><path class="cls-1" d="M531,56.5H455.1a1.2,1.2,0,0,0-1.36,1.35V99.66A1.2,1.2,0,0,0,455.1,101h50.62q3.61,0,3.61,3.62V120c0,2.42-1.2,3.62-3.61,3.62H455.1a1.2,1.2,0,0,0-1.36,1.36v43.16a1.2,1.2,0,0,0,1.36,1.36H531c2.41,0,3.62,1.21,3.62,3.61v15.37q0,3.61-3.62,3.62H431.14q-3.61,0-3.62-3.62v-151c0-2.4,1.21-3.61,3.62-3.61H531c2.41,0,3.62,1.21,3.62,3.61V52.88Q534.65,56.5,531,56.5Z"/><path class="cls-1" d="M401.79,124.57a51.45,51.45,0,0,0-17.19-14.49,267,267,0,0,0-26.74-11.54q-15.78-5.66-23.32-9.31t-11.3-8.13q-3.78-4.47-3.77-11.54,0-9.9,7.18-15.31t20.14-5.42c10.68,0,13-23.56,1.18-23.56q-25.2,0-40.28,12T292.62,70q0,13.91,6.94,23.2A50.48,50.48,0,0,0,316.88,108,232,232,0,0,0,344,119.5q14.83,5.66,22.26,9.43a37.51,37.51,0,0,1,11.42,8.36,16.42,16.42,0,0,1,4,11.19,19.64,19.64,0,0,1-7.3,15.78q-7.31,6.13-21.67,6.13-15.78,0-25.32-7.19t-9.54-18v-3.77c0-2.36-1.26-3.53-3.77-3.53H294.74c-2.52,0-3.77,1.26-3.77,3.77v4.94a43.08,43.08,0,0,0,7.3,24.86q7.29,10.71,20.84,16.61t31.45,5.88q17.9,0,31.09-5.77t20.26-16.25A42.2,42.2,0,0,0,409,147.77Q409,133.88,401.79,124.57Z"/><path class="cls-2" d="M361.9,24h0l.09-.17a4.73,4.73,0,0,0-1.8-6.45l-.35-.2A4.74,4.74,0,0,0,353.39,19l-17.83,31.7a4.74,4.74,0,0,0,1.81,6.45l.35.2a4.74,4.74,0,0,0,6.45-1.81l.1-.18h0Z"/><polygon class="cls-2" points="408.98 61.51 361.9 23.98 361.9 23.98 369.01 29.65 344.26 55.34 344.26 55.34 400.87 75.94 408.98 61.51"/><polygon class="cls-2" points="369.01 29.65 361.9 23.98 344.26 55.34 369.01 29.65"/><polygon class="cls-3" points="369.01 29.65 361.9 23.98 344.26 55.34 369.01 29.65"/><path class="cls-4" d="M409,61.51a16.27,16.27,0,0,0-8.11,14.43Z"/></svg>